<mxfile host="app.diagrams.net" agent="Mozilla/5.0 (Windows NT 10.0; Win64; x64) AppleWebKit/537.36 (KHTML, like Gecko) Chrome/130.0.0.0 Safari/537.36" version="24.8.2">
  <diagram name="Страница — 1" id="UOntejemrvACpvtsWQj9">
    <mxGraphModel dx="814" dy="807" grid="1" gridSize="10" guides="1" tooltips="1" connect="1" arrows="1" fold="1" page="1" pageScale="1" pageWidth="3300" pageHeight="2339" math="0" shadow="0">
      <root>
        <mxCell id="0" />
        <mxCell id="1" parent="0" />
        <mxCell id="fE0YWYt9ngZXiTgXL01a-126" style="edgeStyle=orthogonalEdgeStyle;rounded=0;orthogonalLoop=1;jettySize=auto;html=1;exitX=1;exitY=0.5;exitDx=0;exitDy=0;exitPerimeter=0;entryX=0;entryY=0.5;entryDx=0;entryDy=0;entryPerimeter=0;" edge="1" parent="1" source="fE0YWYt9ngZXiTgXL01a-104">
          <mxGeometry relative="1" as="geometry">
            <mxPoint x="680" y="809.9999999999998" as="targetPoint" />
          </mxGeometry>
        </mxCell>
        <mxCell id="fE0YWYt9ngZXiTgXL01a-1" value="Прцесс доставки воды на дом" style="swimlane;html=1;childLayout=stackLayout;resizeParent=1;resizeParentMax=0;horizontal=0;startSize=20;horizontalStack=0;whiteSpace=wrap;" vertex="1" parent="1">
          <mxGeometry x="30" y="30" width="2530" height="1750" as="geometry" />
        </mxCell>
        <mxCell id="fE0YWYt9ngZXiTgXL01a-141" style="edgeStyle=orthogonalEdgeStyle;rounded=0;orthogonalLoop=1;jettySize=auto;html=1;exitX=0.5;exitY=0;exitDx=0;exitDy=0;exitPerimeter=0;dashed=1;entryX=0.5;entryY=1;entryDx=0;entryDy=0;entryPerimeter=0;" edge="1" parent="fE0YWYt9ngZXiTgXL01a-1" source="fE0YWYt9ngZXiTgXL01a-93" target="fE0YWYt9ngZXiTgXL01a-142">
          <mxGeometry relative="1" as="geometry">
            <mxPoint x="409.5" y="310" as="targetPoint" />
          </mxGeometry>
        </mxCell>
        <mxCell id="fE0YWYt9ngZXiTgXL01a-2" value="Клиент" style="swimlane;html=1;startSize=20;horizontal=0;" vertex="1" parent="fE0YWYt9ngZXiTgXL01a-1">
          <mxGeometry x="20" width="2510" height="360" as="geometry" />
        </mxCell>
        <mxCell id="fE0YWYt9ngZXiTgXL01a-3" value="Необходимость&amp;nbsp;&lt;div&gt;заказа воды&lt;/div&gt;" style="points=[[0.145,0.145,0],[0.5,0,0],[0.855,0.145,0],[1,0.5,0],[0.855,0.855,0],[0.5,1,0],[0.145,0.855,0],[0,0.5,0]];shape=mxgraph.bpmn.event;html=1;verticalLabelPosition=bottom;labelBackgroundColor=#ffffff;verticalAlign=top;align=center;perimeter=ellipsePerimeter;outlineConnect=0;aspect=fixed;outline=standard;symbol=general;" vertex="1" parent="fE0YWYt9ngZXiTgXL01a-2">
          <mxGeometry x="60" y="135" width="50" height="50" as="geometry" />
        </mxCell>
        <mxCell id="fE0YWYt9ngZXiTgXL01a-8" style="edgeStyle=orthogonalEdgeStyle;rounded=0;orthogonalLoop=1;jettySize=auto;html=1;entryX=0;entryY=0.5;entryDx=0;entryDy=0;entryPerimeter=0;" edge="1" parent="fE0YWYt9ngZXiTgXL01a-2" source="fE0YWYt9ngZXiTgXL01a-3">
          <mxGeometry relative="1" as="geometry">
            <mxPoint x="160" y="160" as="targetPoint" />
          </mxGeometry>
        </mxCell>
        <mxCell id="fE0YWYt9ngZXiTgXL01a-42" value="Уведомить клиента об успешном оформлении ипотеки" style="points=[[0.25,0,0],[0.5,0,0],[0.75,0,0],[1,0.25,0],[1,0.5,0],[1,0.75,0],[0.75,1,0],[0.5,1,0],[0.25,1,0],[0,0.75,0],[0,0.5,0],[0,0.25,0]];shape=mxgraph.bpmn.task;whiteSpace=wrap;rectStyle=rounded;size=10;html=1;container=1;expand=0;collapsible=0;taskMarker=service;" vertex="1" parent="fE0YWYt9ngZXiTgXL01a-2">
          <mxGeometry x="2040" y="460" width="120" height="80" as="geometry" />
        </mxCell>
        <mxCell id="fE0YWYt9ngZXiTgXL01a-44" value="" style="points=[[0.25,0.25,0],[0.5,0,0],[0.75,0.25,0],[1,0.5,0],[0.75,0.75,0],[0.5,1,0],[0.25,0.75,0],[0,0.5,0]];shape=mxgraph.bpmn.gateway2;html=1;verticalLabelPosition=bottom;labelBackgroundColor=#ffffff;verticalAlign=top;align=center;perimeter=rhombusPerimeter;outlineConnect=0;outline=none;symbol=none;gwType=parallel;" vertex="1" parent="fE0YWYt9ngZXiTgXL01a-2">
          <mxGeometry x="2210" y="560" width="50" height="50" as="geometry" />
        </mxCell>
        <mxCell id="fE0YWYt9ngZXiTgXL01a-45" style="edgeStyle=orthogonalEdgeStyle;rounded=0;orthogonalLoop=1;jettySize=auto;html=1;entryX=0.5;entryY=1;entryDx=0;entryDy=0;entryPerimeter=0;" edge="1" parent="fE0YWYt9ngZXiTgXL01a-2" target="fE0YWYt9ngZXiTgXL01a-44">
          <mxGeometry relative="1" as="geometry">
            <mxPoint x="2160" y="670" as="sourcePoint" />
          </mxGeometry>
        </mxCell>
        <mxCell id="fE0YWYt9ngZXiTgXL01a-46" style="edgeStyle=orthogonalEdgeStyle;rounded=0;orthogonalLoop=1;jettySize=auto;html=1;entryX=0.5;entryY=0;entryDx=0;entryDy=0;entryPerimeter=0;" edge="1" parent="fE0YWYt9ngZXiTgXL01a-2" source="fE0YWYt9ngZXiTgXL01a-42" target="fE0YWYt9ngZXiTgXL01a-44">
          <mxGeometry relative="1" as="geometry" />
        </mxCell>
        <mxCell id="fE0YWYt9ngZXiTgXL01a-47" value="Ипотека оформлена" style="points=[[0.145,0.145,0],[0.5,0,0],[0.855,0.145,0],[1,0.5,0],[0.855,0.855,0],[0.5,1,0],[0.145,0.855,0],[0,0.5,0]];shape=mxgraph.bpmn.event;html=1;verticalLabelPosition=bottom;labelBackgroundColor=#ffffff;verticalAlign=top;align=center;perimeter=ellipsePerimeter;outlineConnect=0;aspect=fixed;outline=end;symbol=terminate2;" vertex="1" parent="fE0YWYt9ngZXiTgXL01a-2">
          <mxGeometry x="2330" y="560" width="50" height="50" as="geometry" />
        </mxCell>
        <mxCell id="fE0YWYt9ngZXiTgXL01a-48" style="edgeStyle=orthogonalEdgeStyle;rounded=0;orthogonalLoop=1;jettySize=auto;html=1;entryX=0;entryY=0.5;entryDx=0;entryDy=0;entryPerimeter=0;" edge="1" parent="fE0YWYt9ngZXiTgXL01a-2" source="fE0YWYt9ngZXiTgXL01a-44" target="fE0YWYt9ngZXiTgXL01a-47">
          <mxGeometry relative="1" as="geometry" />
        </mxCell>
        <mxCell id="fE0YWYt9ngZXiTgXL01a-49" value="Перевести средства" style="points=[[0.25,0,0],[0.5,0,0],[0.75,0,0],[1,0.25,0],[1,0.5,0],[1,0.75,0],[0.75,1,0],[0.5,1,0],[0.25,1,0],[0,0.75,0],[0,0.5,0],[0,0.25,0]];shape=mxgraph.bpmn.task;whiteSpace=wrap;rectStyle=rounded;size=10;html=1;container=1;expand=0;collapsible=0;taskMarker=service;" vertex="1" parent="fE0YWYt9ngZXiTgXL01a-2">
          <mxGeometry x="2040" y="630" width="120" height="80" as="geometry" />
        </mxCell>
        <mxCell id="fE0YWYt9ngZXiTgXL01a-89" value="Оформить заказ в приложении" style="points=[[0.25,0,0],[0.5,0,0],[0.75,0,0],[1,0.25,0],[1,0.5,0],[1,0.75,0],[0.75,1,0],[0.5,1,0],[0.25,1,0],[0,0.75,0],[0,0.5,0],[0,0.25,0]];shape=mxgraph.bpmn.task;whiteSpace=wrap;rectStyle=rounded;size=10;html=1;container=1;expand=0;collapsible=0;taskMarker=user;" vertex="1" parent="fE0YWYt9ngZXiTgXL01a-2">
          <mxGeometry x="160" y="120" width="120" height="80" as="geometry" />
        </mxCell>
        <mxCell id="fE0YWYt9ngZXiTgXL01a-142" value="Получить уведомление" style="points=[[0.25,0,0],[0.5,0,0],[0.75,0,0],[1,0.25,0],[1,0.5,0],[1,0.75,0],[0.75,1,0],[0.5,1,0],[0.25,1,0],[0,0.75,0],[0,0.5,0],[0,0.25,0]];shape=mxgraph.bpmn.task;whiteSpace=wrap;rectStyle=rounded;size=10;html=1;container=1;expand=0;collapsible=0;taskMarker=abstract;" vertex="1" parent="fE0YWYt9ngZXiTgXL01a-2">
          <mxGeometry x="330" y="210" width="120" height="80" as="geometry" />
        </mxCell>
        <mxCell id="fE0YWYt9ngZXiTgXL01a-144" value="Получить уведомление" style="points=[[0.25,0,0],[0.5,0,0],[0.75,0,0],[1,0.25,0],[1,0.5,0],[1,0.75,0],[0.75,1,0],[0.5,1,0],[0.25,1,0],[0,0.75,0],[0,0.5,0],[0,0.25,0]];shape=mxgraph.bpmn.task;whiteSpace=wrap;rectStyle=rounded;size=10;html=1;container=1;expand=0;collapsible=0;taskMarker=abstract;" vertex="1" parent="fE0YWYt9ngZXiTgXL01a-2">
          <mxGeometry x="630" y="210" width="120" height="80" as="geometry" />
        </mxCell>
        <mxCell id="fE0YWYt9ngZXiTgXL01a-153" value="" style="shape=message;html=1;fillColor=#FFFFFF;" vertex="1" parent="fE0YWYt9ngZXiTgXL01a-2">
          <mxGeometry x="375" y="320" width="30" height="20" as="geometry" />
        </mxCell>
        <mxCell id="fE0YWYt9ngZXiTgXL01a-159" value="" style="edgeStyle=orthogonalEdgeStyle;rounded=0;orthogonalLoop=1;jettySize=auto;html=1;dashed=1;entryX=0.5;entryY=1;entryDx=0;entryDy=0;entryPerimeter=0;" edge="1" parent="fE0YWYt9ngZXiTgXL01a-2">
          <mxGeometry relative="1" as="geometry">
            <mxPoint x="689.55" y="290" as="targetPoint" />
            <mxPoint x="690" y="380" as="sourcePoint" />
          </mxGeometry>
        </mxCell>
        <mxCell id="fE0YWYt9ngZXiTgXL01a-83" value="Приложение для заказа" style="swimlane;html=1;startSize=20;horizontal=0;" vertex="1" parent="fE0YWYt9ngZXiTgXL01a-1">
          <mxGeometry x="20" y="360" width="2510" height="360" as="geometry" />
        </mxCell>
        <mxCell id="fE0YWYt9ngZXiTgXL01a-93" value="Уведомить клиента об успешно оформленном заказе" style="points=[[0.25,0,0],[0.5,0,0],[0.75,0,0],[1,0.25,0],[1,0.5,0],[1,0.75,0],[0.75,1,0],[0.5,1,0],[0.25,1,0],[0,0.75,0],[0,0.5,0],[0,0.25,0]];shape=mxgraph.bpmn.task;whiteSpace=wrap;rectStyle=rounded;size=10;html=1;container=1;expand=0;collapsible=0;taskMarker=service;" vertex="1" parent="fE0YWYt9ngZXiTgXL01a-83">
          <mxGeometry x="329.9957142857145" y="10" width="120" height="80" as="geometry" />
        </mxCell>
        <mxCell id="fE0YWYt9ngZXiTgXL01a-140" value="Уведомить клиента&amp;nbsp;&lt;div&gt;о начале сборки заказа&lt;/div&gt;" style="points=[[0.25,0,0],[0.5,0,0],[0.75,0,0],[1,0.25,0],[1,0.5,0],[1,0.75,0],[0.75,1,0],[0.5,1,0],[0.25,1,0],[0,0.75,0],[0,0.5,0],[0,0.25,0]];shape=mxgraph.bpmn.task;whiteSpace=wrap;rectStyle=rounded;size=10;html=1;container=1;expand=0;collapsible=0;taskMarker=service;" vertex="1" parent="fE0YWYt9ngZXiTgXL01a-83">
          <mxGeometry x="629.9957142857145" y="10" width="120" height="80" as="geometry" />
        </mxCell>
        <mxCell id="fE0YWYt9ngZXiTgXL01a-156" value="" style="shape=message;html=1;fillColor=#FFFFFF;" vertex="1" parent="fE0YWYt9ngZXiTgXL01a-83">
          <mxGeometry x="675" y="-40" width="30" height="20" as="geometry" />
        </mxCell>
        <mxCell id="fE0YWYt9ngZXiTgXL01a-166" value="Получить уведомление" style="points=[[0.25,0,0],[0.5,0,0],[0.75,0,0],[1,0.25,0],[1,0.5,0],[1,0.75,0],[0.75,1,0],[0.5,1,0],[0.25,1,0],[0,0.75,0],[0,0.5,0],[0,0.25,0]];shape=mxgraph.bpmn.task;whiteSpace=wrap;rectStyle=rounded;size=10;html=1;container=1;expand=0;collapsible=0;taskMarker=abstract;" vertex="1" parent="fE0YWYt9ngZXiTgXL01a-83">
          <mxGeometry x="950" y="-150" width="120" height="80" as="geometry" />
        </mxCell>
        <mxCell id="fE0YWYt9ngZXiTgXL01a-167" value="" style="edgeStyle=orthogonalEdgeStyle;rounded=0;orthogonalLoop=1;jettySize=auto;html=1;dashed=1;entryX=0.5;entryY=1;entryDx=0;entryDy=0;entryPerimeter=0;" edge="1" parent="fE0YWYt9ngZXiTgXL01a-83">
          <mxGeometry relative="1" as="geometry">
            <mxPoint x="1009.55" y="-70" as="targetPoint" />
            <mxPoint x="1010" y="20" as="sourcePoint" />
          </mxGeometry>
        </mxCell>
        <mxCell id="fE0YWYt9ngZXiTgXL01a-172" style="edgeStyle=orthogonalEdgeStyle;rounded=0;orthogonalLoop=1;jettySize=auto;html=1;exitX=1;exitY=0.5;exitDx=0;exitDy=0;exitPerimeter=0;" edge="1" parent="fE0YWYt9ngZXiTgXL01a-83" source="fE0YWYt9ngZXiTgXL01a-168">
          <mxGeometry relative="1" as="geometry">
            <mxPoint x="1110" y="50.14285714285711" as="targetPoint" />
          </mxGeometry>
        </mxCell>
        <mxCell id="fE0YWYt9ngZXiTgXL01a-168" value="Уведомить клиента&amp;nbsp;&lt;div&gt;о собранном заказе&lt;/div&gt;" style="points=[[0.25,0,0],[0.5,0,0],[0.75,0,0],[1,0.25,0],[1,0.5,0],[1,0.75,0],[0.75,1,0],[0.5,1,0],[0.25,1,0],[0,0.75,0],[0,0.5,0],[0,0.25,0]];shape=mxgraph.bpmn.task;whiteSpace=wrap;rectStyle=rounded;size=10;html=1;container=1;expand=0;collapsible=0;taskMarker=service;" vertex="1" parent="fE0YWYt9ngZXiTgXL01a-83">
          <mxGeometry x="949.9957142857145" y="10" width="120" height="80" as="geometry" />
        </mxCell>
        <mxCell id="fE0YWYt9ngZXiTgXL01a-169" value="" style="shape=message;html=1;fillColor=#FFFFFF;" vertex="1" parent="fE0YWYt9ngZXiTgXL01a-83">
          <mxGeometry x="995" y="-40" width="30" height="20" as="geometry" />
        </mxCell>
        <mxCell id="fE0YWYt9ngZXiTgXL01a-170" style="edgeStyle=orthogonalEdgeStyle;rounded=0;orthogonalLoop=1;jettySize=auto;html=1;exitX=0.5;exitY=0;exitDx=0;exitDy=0;exitPerimeter=0;entryX=0.5;entryY=1;entryDx=0;entryDy=0;entryPerimeter=0;" edge="1" parent="fE0YWYt9ngZXiTgXL01a-83" target="fE0YWYt9ngZXiTgXL01a-168">
          <mxGeometry relative="1" as="geometry">
            <mxPoint x="1010" y="310" as="targetPoint" />
            <mxPoint x="1010" y="400" as="sourcePoint" />
          </mxGeometry>
        </mxCell>
        <mxCell id="fE0YWYt9ngZXiTgXL01a-173" value="Поиск курьера для доставки" style="points=[[0.25,0,0],[0.5,0,0],[0.75,0,0],[1,0.25,0],[1,0.5,0],[1,0.75,0],[0.75,1,0],[0.5,1,0],[0.25,1,0],[0,0.75,0],[0,0.5,0],[0,0.25,0]];shape=mxgraph.bpmn.task;whiteSpace=wrap;rectStyle=rounded;size=10;html=1;container=1;expand=0;collapsible=0;taskMarker=service;" vertex="1" parent="fE0YWYt9ngZXiTgXL01a-83">
          <mxGeometry x="1109.9957142857145" y="10" width="120" height="80" as="geometry" />
        </mxCell>
        <mxCell id="fE0YWYt9ngZXiTgXL01a-68" value="Сотрудник склада" style="swimlane;html=1;startSize=20;horizontal=0;" vertex="1" parent="fE0YWYt9ngZXiTgXL01a-1">
          <mxGeometry x="20" y="720" width="2510" height="350" as="geometry" />
        </mxCell>
        <mxCell id="fE0YWYt9ngZXiTgXL01a-121" value="Какие-то товары отсутствуют на складе" style="points=[[0.25,0,0],[0.5,0,0],[0.75,0,0],[1,0.25,0],[1,0.5,0],[1,0.75,0],[0.75,1,0],[0.5,1,0],[0.25,1,0],[0,0.75,0],[0,0.5,0],[0,0.25,0]];shape=mxgraph.bpmn.task;whiteSpace=wrap;rectStyle=rounded;size=10;html=1;container=1;expand=0;collapsible=0;taskMarker=abstract;isLoopStandard=1;isLoopSub=1;" vertex="1" parent="fE0YWYt9ngZXiTgXL01a-68">
          <mxGeometry x="630" y="150" width="120" height="80" as="geometry" />
        </mxCell>
        <mxCell id="fE0YWYt9ngZXiTgXL01a-128" value="Товары отсутствуют" style="text;strokeColor=none;align=center;fillColor=none;html=1;verticalAlign=middle;whiteSpace=wrap;rounded=0;" vertex="1" parent="fE0YWYt9ngZXiTgXL01a-68">
          <mxGeometry x="540" y="150" width="60" height="30" as="geometry" />
        </mxCell>
        <mxCell id="fE0YWYt9ngZXiTgXL01a-134" value="Указать в приложении о начале сборке&amp;nbsp;" style="points=[[0.25,0,0],[0.5,0,0],[0.75,0,0],[1,0.25,0],[1,0.5,0],[1,0.75,0],[0.75,1,0],[0.5,1,0],[0.25,1,0],[0,0.75,0],[0,0.5,0],[0,0.25,0]];shape=mxgraph.bpmn.task;whiteSpace=wrap;rectStyle=rounded;size=10;html=1;container=1;expand=0;collapsible=0;taskMarker=user;" vertex="1" parent="fE0YWYt9ngZXiTgXL01a-68">
          <mxGeometry x="630" y="40" width="120" height="80" as="geometry" />
        </mxCell>
        <mxCell id="fE0YWYt9ngZXiTgXL01a-163" style="edgeStyle=orthogonalEdgeStyle;rounded=0;orthogonalLoop=1;jettySize=auto;html=1;exitX=1;exitY=0.5;exitDx=0;exitDy=0;exitPerimeter=0;" edge="1" parent="fE0YWYt9ngZXiTgXL01a-68" source="fE0YWYt9ngZXiTgXL01a-137">
          <mxGeometry relative="1" as="geometry">
            <mxPoint x="950" y="79.66666666666674" as="targetPoint" />
          </mxGeometry>
        </mxCell>
        <mxCell id="fE0YWYt9ngZXiTgXL01a-137" value="Собрать заказ" style="points=[[0.25,0,0],[0.5,0,0],[0.75,0,0],[1,0.25,0],[1,0.5,0],[1,0.75,0],[0.75,1,0],[0.5,1,0],[0.25,1,0],[0,0.75,0],[0,0.5,0],[0,0.25,0]];shape=mxgraph.bpmn.task;whiteSpace=wrap;rectStyle=rounded;size=10;html=1;container=1;expand=0;collapsible=0;taskMarker=manual;" vertex="1" parent="fE0YWYt9ngZXiTgXL01a-68">
          <mxGeometry x="790" y="40" width="120" height="80" as="geometry" />
        </mxCell>
        <mxCell id="fE0YWYt9ngZXiTgXL01a-138" style="edgeStyle=orthogonalEdgeStyle;rounded=0;orthogonalLoop=1;jettySize=auto;html=1;exitX=1;exitY=0.5;exitDx=0;exitDy=0;exitPerimeter=0;entryX=0;entryY=0.5;entryDx=0;entryDy=0;entryPerimeter=0;" edge="1" parent="fE0YWYt9ngZXiTgXL01a-68" source="fE0YWYt9ngZXiTgXL01a-134" target="fE0YWYt9ngZXiTgXL01a-137">
          <mxGeometry relative="1" as="geometry" />
        </mxCell>
        <mxCell id="fE0YWYt9ngZXiTgXL01a-129" value="Все товары в наличии" style="text;strokeColor=none;align=center;fillColor=#FFFFFF;html=1;verticalAlign=middle;whiteSpace=wrap;rounded=0;" vertex="1" parent="fE0YWYt9ngZXiTgXL01a-68">
          <mxGeometry x="550" y="40" width="60" height="30" as="geometry" />
        </mxCell>
        <mxCell id="fE0YWYt9ngZXiTgXL01a-102" style="edgeStyle=orthogonalEdgeStyle;rounded=0;orthogonalLoop=1;jettySize=auto;html=1;exitX=1;exitY=0.5;exitDx=0;exitDy=0;exitPerimeter=0;entryX=0;entryY=0.5;entryDx=0;entryDy=0;entryPerimeter=0;" edge="1" parent="fE0YWYt9ngZXiTgXL01a-68" source="fE0YWYt9ngZXiTgXL01a-98">
          <mxGeometry relative="1" as="geometry">
            <mxPoint x="330" y="59.99999999999977" as="targetPoint" />
          </mxGeometry>
        </mxCell>
        <mxCell id="fE0YWYt9ngZXiTgXL01a-98" value="Отправить список товаров сотрудникам склада" style="points=[[0.25,0,0],[0.5,0,0],[0.75,0,0],[1,0.25,0],[1,0.5,0],[1,0.75,0],[0.75,1,0],[0.5,1,0],[0.25,1,0],[0,0.75,0],[0,0.5,0],[0,0.25,0]];shape=mxgraph.bpmn.task;whiteSpace=wrap;rectStyle=rounded;size=10;html=1;container=1;expand=0;collapsible=0;taskMarker=service;" vertex="1" parent="fE0YWYt9ngZXiTgXL01a-68">
          <mxGeometry x="159.99571428571448" y="20" width="120" height="80" as="geometry" />
        </mxCell>
        <mxCell id="fE0YWYt9ngZXiTgXL01a-122" value="Проверить наличие товаров на складе" style="points=[[0.25,0,0],[0.5,0,0],[0.75,0,0],[1,0.25,0],[1,0.5,0],[1,0.75,0],[0.75,1,0],[0.5,1,0],[0.25,1,0],[0,0.75,0],[0,0.5,0],[0,0.25,0]];shape=mxgraph.bpmn.task;whiteSpace=wrap;rectStyle=rounded;size=10;html=1;container=1;expand=0;collapsible=0;taskMarker=manual;" vertex="1" parent="fE0YWYt9ngZXiTgXL01a-68">
          <mxGeometry x="330" y="20" width="120" height="80" as="geometry" />
        </mxCell>
        <mxCell id="fE0YWYt9ngZXiTgXL01a-165" value="Указать в приложении о собранном заказе" style="points=[[0.25,0,0],[0.5,0,0],[0.75,0,0],[1,0.25,0],[1,0.5,0],[1,0.75,0],[0.75,1,0],[0.5,1,0],[0.25,1,0],[0,0.75,0],[0,0.5,0],[0,0.25,0]];shape=mxgraph.bpmn.task;whiteSpace=wrap;rectStyle=rounded;size=10;html=1;container=1;expand=0;collapsible=0;taskMarker=user;" vertex="1" parent="fE0YWYt9ngZXiTgXL01a-68">
          <mxGeometry x="950" y="40" width="120" height="80" as="geometry" />
        </mxCell>
        <mxCell id="fE0YWYt9ngZXiTgXL01a-82" value="Курьер" style="swimlane;html=1;startSize=20;horizontal=0;" vertex="1" parent="fE0YWYt9ngZXiTgXL01a-1">
          <mxGeometry x="20" y="1070" width="2510" height="680" as="geometry" />
        </mxCell>
        <mxCell id="fE0YWYt9ngZXiTgXL01a-136" style="edgeStyle=orthogonalEdgeStyle;rounded=0;orthogonalLoop=1;jettySize=auto;html=1;exitX=0.5;exitY=0;exitDx=0;exitDy=0;exitPerimeter=0;entryX=0.5;entryY=1;entryDx=0;entryDy=0;entryPerimeter=0;" edge="1" parent="fE0YWYt9ngZXiTgXL01a-1" source="fE0YWYt9ngZXiTgXL01a-134" target="fE0YWYt9ngZXiTgXL01a-140">
          <mxGeometry relative="1" as="geometry">
            <mxPoint x="710" y="670" as="targetPoint" />
          </mxGeometry>
        </mxCell>
        <mxCell id="fE0YWYt9ngZXiTgXL01a-92" style="edgeStyle=orthogonalEdgeStyle;rounded=0;orthogonalLoop=1;jettySize=auto;html=1;exitX=1;exitY=0.5;exitDx=0;exitDy=0;exitPerimeter=0;" edge="1" parent="1" source="fE0YWYt9ngZXiTgXL01a-91">
          <mxGeometry relative="1" as="geometry">
            <mxPoint x="380" y="440.1428571428571" as="targetPoint" />
          </mxGeometry>
        </mxCell>
        <mxCell id="fE0YWYt9ngZXiTgXL01a-97" style="edgeStyle=orthogonalEdgeStyle;rounded=0;orthogonalLoop=1;jettySize=auto;html=1;exitX=0.5;exitY=1;exitDx=0;exitDy=0;exitPerimeter=0;" edge="1" parent="1" source="fE0YWYt9ngZXiTgXL01a-91">
          <mxGeometry relative="1" as="geometry">
            <mxPoint x="270.28571428571445" y="770" as="targetPoint" />
          </mxGeometry>
        </mxCell>
        <mxCell id="fE0YWYt9ngZXiTgXL01a-91" value="Получить информацию о заказе" style="points=[[0.25,0,0],[0.5,0,0],[0.75,0,0],[1,0.25,0],[1,0.5,0],[1,0.75,0],[0.75,1,0],[0.5,1,0],[0.25,1,0],[0,0.75,0],[0,0.5,0],[0,0.25,0]];shape=mxgraph.bpmn.task;whiteSpace=wrap;rectStyle=rounded;size=10;html=1;container=1;expand=0;collapsible=0;taskMarker=service;" vertex="1" parent="1">
          <mxGeometry x="210.28571428571445" y="400" width="120" height="80" as="geometry" />
        </mxCell>
        <mxCell id="fE0YWYt9ngZXiTgXL01a-90" style="edgeStyle=orthogonalEdgeStyle;rounded=0;orthogonalLoop=1;jettySize=auto;html=1;exitX=0.5;exitY=1;exitDx=0;exitDy=0;exitPerimeter=0;" edge="1" parent="1" source="fE0YWYt9ngZXiTgXL01a-89" target="fE0YWYt9ngZXiTgXL01a-91">
          <mxGeometry relative="1" as="geometry">
            <mxPoint x="270.28571428571445" y="440" as="targetPoint" />
          </mxGeometry>
        </mxCell>
        <mxCell id="fE0YWYt9ngZXiTgXL01a-104" value="" style="points=[[0.25,0.25,0],[0.5,0,0],[0.75,0.25,0],[1,0.5,0],[0.75,0.75,0],[0.5,1,0],[0.25,0.75,0],[0,0.5,0]];shape=mxgraph.bpmn.gateway2;html=1;verticalLabelPosition=bottom;labelBackgroundColor=#ffffff;verticalAlign=top;align=center;perimeter=rhombusPerimeter;outlineConnect=0;outline=none;symbol=none;gwType=exclusive;" vertex="1" parent="1">
          <mxGeometry x="535" y="785" width="50" height="50" as="geometry" />
        </mxCell>
        <mxCell id="fE0YWYt9ngZXiTgXL01a-110" value="Сделать подпроцесс проверки товара на складе и замены его на другой, при нескольких товарах" style="text;strokeColor=none;align=center;fillColor=none;html=1;verticalAlign=middle;whiteSpace=wrap;rounded=0;" vertex="1" parent="1">
          <mxGeometry x="330" y="1870" width="60" height="30" as="geometry" />
        </mxCell>
        <mxCell id="fE0YWYt9ngZXiTgXL01a-127" style="edgeStyle=orthogonalEdgeStyle;rounded=0;orthogonalLoop=1;jettySize=auto;html=1;exitX=0.5;exitY=1;exitDx=0;exitDy=0;exitPerimeter=0;entryX=0;entryY=0.5;entryDx=0;entryDy=0;entryPerimeter=0;" edge="1" parent="1" source="fE0YWYt9ngZXiTgXL01a-104" target="fE0YWYt9ngZXiTgXL01a-121">
          <mxGeometry relative="1" as="geometry" />
        </mxCell>
        <mxCell id="fE0YWYt9ngZXiTgXL01a-162" style="edgeStyle=orthogonalEdgeStyle;rounded=0;orthogonalLoop=1;jettySize=auto;html=1;exitX=1;exitY=0.5;exitDx=0;exitDy=0;exitPerimeter=0;entryX=0;entryY=0.5;entryDx=0;entryDy=0;entryPerimeter=0;" edge="1" parent="1" source="fE0YWYt9ngZXiTgXL01a-122" target="fE0YWYt9ngZXiTgXL01a-104">
          <mxGeometry relative="1" as="geometry" />
        </mxCell>
        <mxCell id="fE0YWYt9ngZXiTgXL01a-164" value="" style="shape=message;html=1;fillColor=#FFFFFF;" vertex="1" parent="1">
          <mxGeometry x="445" y="370" width="30" height="20" as="geometry" />
        </mxCell>
      </root>
    </mxGraphModel>
  </diagram>
</mxfile>
